<?xml version="1.0" encoding="UTF-8" standalone="no"?>
<svg
   xmlns:dc="http://purl.org/dc/elements/1.1/"
   xmlns:cc="http://creativecommons.org/ns#"
   xmlns:rdf="http://www.w3.org/1999/02/22-rdf-syntax-ns#"
   xmlns:svg="http://www.w3.org/2000/svg"
   xmlns="http://www.w3.org/2000/svg"
   xmlns:sodipodi="http://sodipodi.sourceforge.net/DTD/sodipodi-0.dtd"
   xmlns:inkscape="http://www.inkscape.org/namespaces/inkscape"
   height="1000"
   width="1000"
   id="svg2995"
   version="1.1"
   inkscape:version="0.48.5 r10040"
   sodipodi:docname="ticket.svg">
  <metadata
     id="metadata3003">
    <rdf:RDF>
      <cc:Work
         rdf:about="">
        <dc:format>image/svg+xml</dc:format>
        <dc:type
           rdf:resource="http://purl.org/dc/dcmitype/StillImage" />
      </cc:Work>
    </rdf:RDF>
  </metadata>
  <defs
     id="defs3001" />
  <sodipodi:namedview
     pagecolor="#ffffff"
     bordercolor="#666666"
     borderopacity="1"
     objecttolerance="10"
     gridtolerance="10"
     guidetolerance="10"
     inkscape:pageopacity="0"
     inkscape:pageshadow="2"
     inkscape:window-width="942"
     inkscape:window-height="529"
     id="namedview2999"
     showgrid="false"
     inkscape:zoom="0.30368302"
     inkscape:cx="570.76801"
     inkscape:cy="454.717"
     inkscape:window-x="1512"
     inkscape:window-y="107"
     inkscape:window-maximized="0"
     inkscape:current-layer="svg2995" />
  <path
     d="m 575.62929,243.80542 176.328,176.328 -319.176,319.176 -176.328,-176.328 z m -117.738,546.282 344.844,-344.844 q 10.602,-10.602 10.602,-25.11 0,-14.508 -10.602,-25.11 l -201.996,-201.996 q -10.044,-10.044 -25.11,-10.044 -15.066,0 -25.11,10.044 l -344.844,344.844 q -10.602,10.602 -10.602,25.11 0,14.508 10.602,25.11 l 201.996,201.996 q 10.044,10.044 25.11,10.044 15.066,0 25.11,-10.044 z M 953.9533,434.64142 447.84729,941.30544 q -20.646,20.646 -50.499,20.646 -29.853,0 -50.499,-20.646 l -70.308,-70.30802 q 31.248,-31.248 31.248,-75.888 0,-44.64 -31.248,-75.888 -31.248,-31.248 -75.888,-31.248 -44.64,0 -75.888,31.248 l -69.749998,-70.308 q -20.646,-20.646 -20.646,-50.499 0,-29.853 20.646,-50.499 L 561.12129,42.367423 q 20.646,-20.645999 50.499,-20.645999 29.853,0 50.499,20.645999 l 69.75,69.750007 q -31.248,31.24799 -31.248,75.88799 0,44.64 31.248,75.888 31.248,31.248 75.888,31.248 44.64,0 75.888,-31.248 l 70.30801,69.75 q 20.646,20.646 20.646,50.499 0,29.853 -20.646,50.499 z"
     id="path2997"
     inkscape:connector-curvature="0"
     style="fill:#ff6600" />
  <path
     d="m 434.65292,739.23569 c -221.97201,145.75245 -110.986,72.87624 0,0 z m 25.11,50.778 344.844,-344.844 c 7.068,-7.068 10.602,-15.438 10.602,-25.11 0,-9.672 -3.534,-18.042 -10.602,-25.11 l -201.996,-201.996 c -6.696,-6.696 -15.066,-10.044 -25.11,-10.044 -10.044,0 -18.414,3.348 -25.11,10.044 l -344.844,344.844 c -7.068,7.068 -10.60199,15.438 -10.60199,25.11 0,9.672 3.53399,18.042 10.60199,25.11 l 201.996,201.996 c 6.696,6.696 15.066,10.044 25.11,10.044 10.044,0 18.414,-3.348 25.11,-10.044 z m 496.062,-355.446 -506.106,506.66405 c -13.764,13.764 -30.597,20.646 -50.499,20.646 -19.902,0 -36.735,-6.882 -50.499,-20.646 l -70.308,-70.30805 c 20.832,-20.832 31.248,-46.128 31.248,-75.888 0,-29.76 -10.416,-55.056 -31.248,-75.888 -20.832,-20.832 -46.128,-31.248 -75.888,-31.248 -29.76,0 -55.05599,10.416 -75.88799,31.248 l -69.749998,-70.308 c -13.764,-13.764 -20.646,-30.597 -20.646,-50.499 0,-19.902 6.882,-36.735 20.646,-50.499 L 562.99292,42.293703 c 13.764,-13.764 30.597,-20.645999 50.499,-20.645999 19.902,0 36.735,6.881999 50.499,20.645999 l 69.75,69.749997 c -20.832,20.83199 -31.248,46.12799 -31.248,75.88799 0,29.76 10.416,55.056 31.248,75.888 20.832,20.832 46.128,31.248 75.888,31.248 29.76,0 55.056,-10.416 75.888,-31.248 l 70.308,69.75 c 13.764,13.764 20.646,30.597 20.646,50.499 0,19.902 -6.882,36.735 -20.646,50.499 z"
     id="path2997-1"
     inkscape:connector-curvature="0"
     sodipodi:nodetypes="ccsssssssssssssccsscsssccsccsscsssccsc" />
</svg>
